<?xml version="1.0" encoding="utf-8" standalone="no"?>
<!DOCTYPE svg PUBLIC "-//W3C//DTD SVG 1.1//EN"
  "http://www.w3.org/Graphics/SVG/1.1/DTD/svg11.dtd">
<svg height="370.91625pt" version="1.1" viewBox="0 0 733.30625 370.91625" width="733.30625pt" xmlns="http://www.w3.org/2000/svg" xmlns:xlink="http://www.w3.org/1999/xlink">
 <metadata>
  <rdf:RDF xmlns:cc="http://creativecommons.org/ns#" xmlns:dc="http://purl.org/dc/elements/1.1/" xmlns:rdf="http://www.w3.org/1999/02/22-rdf-syntax-ns#">
   <cc:Work>
    <dc:type rdf:resource="http://purl.org/dc/dcmitype/StillImage"/>
    <dc:date>2021-10-11T14:13:02.637349</dc:date>
    <dc:format>image/svg+xml</dc:format>
    <dc:creator>
     <cc:Agent>
      <dc:title>Matplotlib v3.4.2, https://matplotlib.org/</dc:title>
     </cc:Agent>
    </dc:creator>
   </cc:Work>
  </rdf:RDF>
 </metadata>
 <defs>
  <style type="text/css">*{stroke-linecap:butt;stroke-linejoin:round;}</style>
 </defs>
 <g id="figure_1">
  <g id="patch_1">
   <path d="M 0 370.91625 
L 733.30625 370.91625 
L 733.30625 0 
L 0 0 
z
" style="fill:none;"/>
  </g>
  <g id="axes_1">
   <g id="patch_2">
    <path d="M 50.14375 333.36 
L 719.74375 333.36 
L 719.74375 7.2 
L 50.14375 7.2 
z
" style="fill:#ffffff;"/>
   </g>
   <g id="matplotlib.axis_1">
    <g id="xtick_1">
     <g id="line2d_1">
      <path clip-path="url(#p4c2dff74e9)" d="M 50.14375 333.36 
L 50.14375 7.2 
" style="fill:none;stroke:#b0b0b0;stroke-dasharray:2.96,1.28;stroke-dashoffset:0;stroke-width:0.8;"/>
     </g>
     <g id="text_1">
      <!-- 0 -->
      <g transform="translate(46.9625 347.958438)scale(0.1 -0.1)">
       <defs>
        <path d="M 2034 4250 
Q 1547 4250 1301 3770 
Q 1056 3291 1056 2328 
Q 1056 1369 1301 889 
Q 1547 409 2034 409 
Q 2525 409 2770 889 
Q 3016 1369 3016 2328 
Q 3016 3291 2770 3770 
Q 2525 4250 2034 4250 
z
M 2034 4750 
Q 2819 4750 3233 4129 
Q 3647 3509 3647 2328 
Q 3647 1150 3233 529 
Q 2819 -91 2034 -91 
Q 1250 -91 836 529 
Q 422 1150 422 2328 
Q 422 3509 836 4129 
Q 1250 4750 2034 4750 
z
" id="DejaVuSans-30" transform="scale(0.015625)"/>
       </defs>
       <use xlink:href="#DejaVuSans-30"/>
      </g>
     </g>
    </g>
    <g id="xtick_2">
     <g id="line2d_2">
      <path clip-path="url(#p4c2dff74e9)" d="M 161.74375 333.36 
L 161.74375 7.2 
" style="fill:none;stroke:#b0b0b0;stroke-dasharray:2.96,1.28;stroke-dashoffset:0;stroke-width:0.8;"/>
     </g>
     <g id="text_2">
      <!-- 5 -->
      <g transform="translate(158.5625 347.958438)scale(0.1 -0.1)">
       <defs>
        <path d="M 691 4666 
L 3169 4666 
L 3169 4134 
L 1269 4134 
L 1269 2991 
Q 1406 3038 1543 3061 
Q 1681 3084 1819 3084 
Q 2600 3084 3056 2656 
Q 3513 2228 3513 1497 
Q 3513 744 3044 326 
Q 2575 -91 1722 -91 
Q 1428 -91 1123 -41 
Q 819 9 494 109 
L 494 744 
Q 775 591 1075 516 
Q 1375 441 1709 441 
Q 2250 441 2565 725 
Q 2881 1009 2881 1497 
Q 2881 1984 2565 2268 
Q 2250 2553 1709 2553 
Q 1456 2553 1204 2497 
Q 953 2441 691 2322 
L 691 4666 
z
" id="DejaVuSans-35" transform="scale(0.015625)"/>
       </defs>
       <use xlink:href="#DejaVuSans-35"/>
      </g>
     </g>
    </g>
    <g id="xtick_3">
     <g id="line2d_3">
      <path clip-path="url(#p4c2dff74e9)" d="M 273.34375 333.36 
L 273.34375 7.2 
" style="fill:none;stroke:#b0b0b0;stroke-dasharray:2.96,1.28;stroke-dashoffset:0;stroke-width:0.8;"/>
     </g>
     <g id="text_3">
      <!-- 10 -->
      <g transform="translate(266.98125 347.958438)scale(0.1 -0.1)">
       <defs>
        <path d="M 794 531 
L 1825 531 
L 1825 4091 
L 703 3866 
L 703 4441 
L 1819 4666 
L 2450 4666 
L 2450 531 
L 3481 531 
L 3481 0 
L 794 0 
L 794 531 
z
" id="DejaVuSans-31" transform="scale(0.015625)"/>
       </defs>
       <use xlink:href="#DejaVuSans-31"/>
       <use x="63.623047" xlink:href="#DejaVuSans-30"/>
      </g>
     </g>
    </g>
    <g id="xtick_4">
     <g id="line2d_4">
      <path clip-path="url(#p4c2dff74e9)" d="M 384.94375 333.36 
L 384.94375 7.2 
" style="fill:none;stroke:#b0b0b0;stroke-dasharray:2.96,1.28;stroke-dashoffset:0;stroke-width:0.8;"/>
     </g>
     <g id="text_4">
      <!-- 15 -->
      <g transform="translate(378.58125 347.958438)scale(0.1 -0.1)">
       <use xlink:href="#DejaVuSans-31"/>
       <use x="63.623047" xlink:href="#DejaVuSans-35"/>
      </g>
     </g>
    </g>
    <g id="xtick_5">
     <g id="line2d_5">
      <path clip-path="url(#p4c2dff74e9)" d="M 496.54375 333.36 
L 496.54375 7.2 
" style="fill:none;stroke:#b0b0b0;stroke-dasharray:2.96,1.28;stroke-dashoffset:0;stroke-width:0.8;"/>
     </g>
     <g id="text_5">
      <!-- 20 -->
      <g transform="translate(490.18125 347.958438)scale(0.1 -0.1)">
       <defs>
        <path d="M 1228 531 
L 3431 531 
L 3431 0 
L 469 0 
L 469 531 
Q 828 903 1448 1529 
Q 2069 2156 2228 2338 
Q 2531 2678 2651 2914 
Q 2772 3150 2772 3378 
Q 2772 3750 2511 3984 
Q 2250 4219 1831 4219 
Q 1534 4219 1204 4116 
Q 875 4013 500 3803 
L 500 4441 
Q 881 4594 1212 4672 
Q 1544 4750 1819 4750 
Q 2544 4750 2975 4387 
Q 3406 4025 3406 3419 
Q 3406 3131 3298 2873 
Q 3191 2616 2906 2266 
Q 2828 2175 2409 1742 
Q 1991 1309 1228 531 
z
" id="DejaVuSans-32" transform="scale(0.015625)"/>
       </defs>
       <use xlink:href="#DejaVuSans-32"/>
       <use x="63.623047" xlink:href="#DejaVuSans-30"/>
      </g>
     </g>
    </g>
    <g id="xtick_6">
     <g id="line2d_6">
      <path clip-path="url(#p4c2dff74e9)" d="M 608.14375 333.36 
L 608.14375 7.2 
" style="fill:none;stroke:#b0b0b0;stroke-dasharray:2.96,1.28;stroke-dashoffset:0;stroke-width:0.8;"/>
     </g>
     <g id="text_6">
      <!-- 25 -->
      <g transform="translate(601.78125 347.958438)scale(0.1 -0.1)">
       <use xlink:href="#DejaVuSans-32"/>
       <use x="63.623047" xlink:href="#DejaVuSans-35"/>
      </g>
     </g>
    </g>
    <g id="xtick_7">
     <g id="line2d_7">
      <path clip-path="url(#p4c2dff74e9)" d="M 719.74375 333.36 
L 719.74375 7.2 
" style="fill:none;stroke:#b0b0b0;stroke-dasharray:2.96,1.28;stroke-dashoffset:0;stroke-width:0.8;"/>
     </g>
     <g id="text_7">
      <!-- 30 -->
      <g transform="translate(713.38125 347.958438)scale(0.1 -0.1)">
       <defs>
        <path d="M 2597 2516 
Q 3050 2419 3304 2112 
Q 3559 1806 3559 1356 
Q 3559 666 3084 287 
Q 2609 -91 1734 -91 
Q 1441 -91 1130 -33 
Q 819 25 488 141 
L 488 750 
Q 750 597 1062 519 
Q 1375 441 1716 441 
Q 2309 441 2620 675 
Q 2931 909 2931 1356 
Q 2931 1769 2642 2001 
Q 2353 2234 1838 2234 
L 1294 2234 
L 1294 2753 
L 1863 2753 
Q 2328 2753 2575 2939 
Q 2822 3125 2822 3475 
Q 2822 3834 2567 4026 
Q 2313 4219 1838 4219 
Q 1578 4219 1281 4162 
Q 984 4106 628 3988 
L 628 4550 
Q 988 4650 1302 4700 
Q 1616 4750 1894 4750 
Q 2613 4750 3031 4423 
Q 3450 4097 3450 3541 
Q 3450 3153 3228 2886 
Q 3006 2619 2597 2516 
z
" id="DejaVuSans-33" transform="scale(0.015625)"/>
       </defs>
       <use xlink:href="#DejaVuSans-33"/>
       <use x="63.623047" xlink:href="#DejaVuSans-30"/>
      </g>
     </g>
    </g>
    <g id="text_8">
     <!-- Sellers active period (in months) -->
     <g transform="translate(556.6625 361.636562)scale(0.1 -0.1)">
      <defs>
       <path d="M 3425 4513 
L 3425 3897 
Q 3066 4069 2747 4153 
Q 2428 4238 2131 4238 
Q 1616 4238 1336 4038 
Q 1056 3838 1056 3469 
Q 1056 3159 1242 3001 
Q 1428 2844 1947 2747 
L 2328 2669 
Q 3034 2534 3370 2195 
Q 3706 1856 3706 1288 
Q 3706 609 3251 259 
Q 2797 -91 1919 -91 
Q 1588 -91 1214 -16 
Q 841 59 441 206 
L 441 856 
Q 825 641 1194 531 
Q 1563 422 1919 422 
Q 2459 422 2753 634 
Q 3047 847 3047 1241 
Q 3047 1584 2836 1778 
Q 2625 1972 2144 2069 
L 1759 2144 
Q 1053 2284 737 2584 
Q 422 2884 422 3419 
Q 422 4038 858 4394 
Q 1294 4750 2059 4750 
Q 2388 4750 2728 4690 
Q 3069 4631 3425 4513 
z
" id="DejaVuSans-53" transform="scale(0.015625)"/>
       <path d="M 3597 1894 
L 3597 1613 
L 953 1613 
Q 991 1019 1311 708 
Q 1631 397 2203 397 
Q 2534 397 2845 478 
Q 3156 559 3463 722 
L 3463 178 
Q 3153 47 2828 -22 
Q 2503 -91 2169 -91 
Q 1331 -91 842 396 
Q 353 884 353 1716 
Q 353 2575 817 3079 
Q 1281 3584 2069 3584 
Q 2775 3584 3186 3129 
Q 3597 2675 3597 1894 
z
M 3022 2063 
Q 3016 2534 2758 2815 
Q 2500 3097 2075 3097 
Q 1594 3097 1305 2825 
Q 1016 2553 972 2059 
L 3022 2063 
z
" id="DejaVuSans-65" transform="scale(0.015625)"/>
       <path d="M 603 4863 
L 1178 4863 
L 1178 0 
L 603 0 
L 603 4863 
z
" id="DejaVuSans-6c" transform="scale(0.015625)"/>
       <path d="M 2631 2963 
Q 2534 3019 2420 3045 
Q 2306 3072 2169 3072 
Q 1681 3072 1420 2755 
Q 1159 2438 1159 1844 
L 1159 0 
L 581 0 
L 581 3500 
L 1159 3500 
L 1159 2956 
Q 1341 3275 1631 3429 
Q 1922 3584 2338 3584 
Q 2397 3584 2469 3576 
Q 2541 3569 2628 3553 
L 2631 2963 
z
" id="DejaVuSans-72" transform="scale(0.015625)"/>
       <path d="M 2834 3397 
L 2834 2853 
Q 2591 2978 2328 3040 
Q 2066 3103 1784 3103 
Q 1356 3103 1142 2972 
Q 928 2841 928 2578 
Q 928 2378 1081 2264 
Q 1234 2150 1697 2047 
L 1894 2003 
Q 2506 1872 2764 1633 
Q 3022 1394 3022 966 
Q 3022 478 2636 193 
Q 2250 -91 1575 -91 
Q 1294 -91 989 -36 
Q 684 19 347 128 
L 347 722 
Q 666 556 975 473 
Q 1284 391 1588 391 
Q 1994 391 2212 530 
Q 2431 669 2431 922 
Q 2431 1156 2273 1281 
Q 2116 1406 1581 1522 
L 1381 1569 
Q 847 1681 609 1914 
Q 372 2147 372 2553 
Q 372 3047 722 3315 
Q 1072 3584 1716 3584 
Q 2034 3584 2315 3537 
Q 2597 3491 2834 3397 
z
" id="DejaVuSans-73" transform="scale(0.015625)"/>
       <path id="DejaVuSans-20" transform="scale(0.015625)"/>
       <path d="M 2194 1759 
Q 1497 1759 1228 1600 
Q 959 1441 959 1056 
Q 959 750 1161 570 
Q 1363 391 1709 391 
Q 2188 391 2477 730 
Q 2766 1069 2766 1631 
L 2766 1759 
L 2194 1759 
z
M 3341 1997 
L 3341 0 
L 2766 0 
L 2766 531 
Q 2569 213 2275 61 
Q 1981 -91 1556 -91 
Q 1019 -91 701 211 
Q 384 513 384 1019 
Q 384 1609 779 1909 
Q 1175 2209 1959 2209 
L 2766 2209 
L 2766 2266 
Q 2766 2663 2505 2880 
Q 2244 3097 1772 3097 
Q 1472 3097 1187 3025 
Q 903 2953 641 2809 
L 641 3341 
Q 956 3463 1253 3523 
Q 1550 3584 1831 3584 
Q 2591 3584 2966 3190 
Q 3341 2797 3341 1997 
z
" id="DejaVuSans-61" transform="scale(0.015625)"/>
       <path d="M 3122 3366 
L 3122 2828 
Q 2878 2963 2633 3030 
Q 2388 3097 2138 3097 
Q 1578 3097 1268 2742 
Q 959 2388 959 1747 
Q 959 1106 1268 751 
Q 1578 397 2138 397 
Q 2388 397 2633 464 
Q 2878 531 3122 666 
L 3122 134 
Q 2881 22 2623 -34 
Q 2366 -91 2075 -91 
Q 1284 -91 818 406 
Q 353 903 353 1747 
Q 353 2603 823 3093 
Q 1294 3584 2113 3584 
Q 2378 3584 2631 3529 
Q 2884 3475 3122 3366 
z
" id="DejaVuSans-63" transform="scale(0.015625)"/>
       <path d="M 1172 4494 
L 1172 3500 
L 2356 3500 
L 2356 3053 
L 1172 3053 
L 1172 1153 
Q 1172 725 1289 603 
Q 1406 481 1766 481 
L 2356 481 
L 2356 0 
L 1766 0 
Q 1100 0 847 248 
Q 594 497 594 1153 
L 594 3053 
L 172 3053 
L 172 3500 
L 594 3500 
L 594 4494 
L 1172 4494 
z
" id="DejaVuSans-74" transform="scale(0.015625)"/>
       <path d="M 603 3500 
L 1178 3500 
L 1178 0 
L 603 0 
L 603 3500 
z
M 603 4863 
L 1178 4863 
L 1178 4134 
L 603 4134 
L 603 4863 
z
" id="DejaVuSans-69" transform="scale(0.015625)"/>
       <path d="M 191 3500 
L 800 3500 
L 1894 563 
L 2988 3500 
L 3597 3500 
L 2284 0 
L 1503 0 
L 191 3500 
z
" id="DejaVuSans-76" transform="scale(0.015625)"/>
       <path d="M 1159 525 
L 1159 -1331 
L 581 -1331 
L 581 3500 
L 1159 3500 
L 1159 2969 
Q 1341 3281 1617 3432 
Q 1894 3584 2278 3584 
Q 2916 3584 3314 3078 
Q 3713 2572 3713 1747 
Q 3713 922 3314 415 
Q 2916 -91 2278 -91 
Q 1894 -91 1617 61 
Q 1341 213 1159 525 
z
M 3116 1747 
Q 3116 2381 2855 2742 
Q 2594 3103 2138 3103 
Q 1681 3103 1420 2742 
Q 1159 2381 1159 1747 
Q 1159 1113 1420 752 
Q 1681 391 2138 391 
Q 2594 391 2855 752 
Q 3116 1113 3116 1747 
z
" id="DejaVuSans-70" transform="scale(0.015625)"/>
       <path d="M 1959 3097 
Q 1497 3097 1228 2736 
Q 959 2375 959 1747 
Q 959 1119 1226 758 
Q 1494 397 1959 397 
Q 2419 397 2687 759 
Q 2956 1122 2956 1747 
Q 2956 2369 2687 2733 
Q 2419 3097 1959 3097 
z
M 1959 3584 
Q 2709 3584 3137 3096 
Q 3566 2609 3566 1747 
Q 3566 888 3137 398 
Q 2709 -91 1959 -91 
Q 1206 -91 779 398 
Q 353 888 353 1747 
Q 353 2609 779 3096 
Q 1206 3584 1959 3584 
z
" id="DejaVuSans-6f" transform="scale(0.015625)"/>
       <path d="M 2906 2969 
L 2906 4863 
L 3481 4863 
L 3481 0 
L 2906 0 
L 2906 525 
Q 2725 213 2448 61 
Q 2172 -91 1784 -91 
Q 1150 -91 751 415 
Q 353 922 353 1747 
Q 353 2572 751 3078 
Q 1150 3584 1784 3584 
Q 2172 3584 2448 3432 
Q 2725 3281 2906 2969 
z
M 947 1747 
Q 947 1113 1208 752 
Q 1469 391 1925 391 
Q 2381 391 2643 752 
Q 2906 1113 2906 1747 
Q 2906 2381 2643 2742 
Q 2381 3103 1925 3103 
Q 1469 3103 1208 2742 
Q 947 2381 947 1747 
z
" id="DejaVuSans-64" transform="scale(0.015625)"/>
       <path d="M 1984 4856 
Q 1566 4138 1362 3434 
Q 1159 2731 1159 2009 
Q 1159 1288 1364 580 
Q 1569 -128 1984 -844 
L 1484 -844 
Q 1016 -109 783 600 
Q 550 1309 550 2009 
Q 550 2706 781 3412 
Q 1013 4119 1484 4856 
L 1984 4856 
z
" id="DejaVuSans-28" transform="scale(0.015625)"/>
       <path d="M 3513 2113 
L 3513 0 
L 2938 0 
L 2938 2094 
Q 2938 2591 2744 2837 
Q 2550 3084 2163 3084 
Q 1697 3084 1428 2787 
Q 1159 2491 1159 1978 
L 1159 0 
L 581 0 
L 581 3500 
L 1159 3500 
L 1159 2956 
Q 1366 3272 1645 3428 
Q 1925 3584 2291 3584 
Q 2894 3584 3203 3211 
Q 3513 2838 3513 2113 
z
" id="DejaVuSans-6e" transform="scale(0.015625)"/>
       <path d="M 3328 2828 
Q 3544 3216 3844 3400 
Q 4144 3584 4550 3584 
Q 5097 3584 5394 3201 
Q 5691 2819 5691 2113 
L 5691 0 
L 5113 0 
L 5113 2094 
Q 5113 2597 4934 2840 
Q 4756 3084 4391 3084 
Q 3944 3084 3684 2787 
Q 3425 2491 3425 1978 
L 3425 0 
L 2847 0 
L 2847 2094 
Q 2847 2600 2669 2842 
Q 2491 3084 2119 3084 
Q 1678 3084 1418 2786 
Q 1159 2488 1159 1978 
L 1159 0 
L 581 0 
L 581 3500 
L 1159 3500 
L 1159 2956 
Q 1356 3278 1631 3431 
Q 1906 3584 2284 3584 
Q 2666 3584 2933 3390 
Q 3200 3197 3328 2828 
z
" id="DejaVuSans-6d" transform="scale(0.015625)"/>
       <path d="M 3513 2113 
L 3513 0 
L 2938 0 
L 2938 2094 
Q 2938 2591 2744 2837 
Q 2550 3084 2163 3084 
Q 1697 3084 1428 2787 
Q 1159 2491 1159 1978 
L 1159 0 
L 581 0 
L 581 4863 
L 1159 4863 
L 1159 2956 
Q 1366 3272 1645 3428 
Q 1925 3584 2291 3584 
Q 2894 3584 3203 3211 
Q 3513 2838 3513 2113 
z
" id="DejaVuSans-68" transform="scale(0.015625)"/>
       <path d="M 513 4856 
L 1013 4856 
Q 1481 4119 1714 3412 
Q 1947 2706 1947 2009 
Q 1947 1309 1714 600 
Q 1481 -109 1013 -844 
L 513 -844 
Q 928 -128 1133 580 
Q 1338 1288 1338 2009 
Q 1338 2731 1133 3434 
Q 928 4138 513 4856 
z
" id="DejaVuSans-29" transform="scale(0.015625)"/>
      </defs>
      <use xlink:href="#DejaVuSans-53"/>
      <use x="63.476562" xlink:href="#DejaVuSans-65"/>
      <use x="125" xlink:href="#DejaVuSans-6c"/>
      <use x="152.783203" xlink:href="#DejaVuSans-6c"/>
      <use x="180.566406" xlink:href="#DejaVuSans-65"/>
      <use x="242.089844" xlink:href="#DejaVuSans-72"/>
      <use x="283.203125" xlink:href="#DejaVuSans-73"/>
      <use x="335.302734" xlink:href="#DejaVuSans-20"/>
      <use x="367.089844" xlink:href="#DejaVuSans-61"/>
      <use x="428.369141" xlink:href="#DejaVuSans-63"/>
      <use x="483.349609" xlink:href="#DejaVuSans-74"/>
      <use x="522.558594" xlink:href="#DejaVuSans-69"/>
      <use x="550.341797" xlink:href="#DejaVuSans-76"/>
      <use x="609.521484" xlink:href="#DejaVuSans-65"/>
      <use x="671.044922" xlink:href="#DejaVuSans-20"/>
      <use x="702.832031" xlink:href="#DejaVuSans-70"/>
      <use x="766.308594" xlink:href="#DejaVuSans-65"/>
      <use x="827.832031" xlink:href="#DejaVuSans-72"/>
      <use x="868.945312" xlink:href="#DejaVuSans-69"/>
      <use x="896.728516" xlink:href="#DejaVuSans-6f"/>
      <use x="957.910156" xlink:href="#DejaVuSans-64"/>
      <use x="1021.386719" xlink:href="#DejaVuSans-20"/>
      <use x="1053.173828" xlink:href="#DejaVuSans-28"/>
      <use x="1092.1875" xlink:href="#DejaVuSans-69"/>
      <use x="1119.970703" xlink:href="#DejaVuSans-6e"/>
      <use x="1183.349609" xlink:href="#DejaVuSans-20"/>
      <use x="1215.136719" xlink:href="#DejaVuSans-6d"/>
      <use x="1312.548828" xlink:href="#DejaVuSans-6f"/>
      <use x="1373.730469" xlink:href="#DejaVuSans-6e"/>
      <use x="1437.109375" xlink:href="#DejaVuSans-74"/>
      <use x="1476.318359" xlink:href="#DejaVuSans-68"/>
      <use x="1539.697266" xlink:href="#DejaVuSans-73"/>
      <use x="1591.796875" xlink:href="#DejaVuSans-29"/>
     </g>
    </g>
   </g>
   <g id="matplotlib.axis_2">
    <g id="ytick_1">
     <g id="line2d_8">
      <path clip-path="url(#p4c2dff74e9)" d="M 50.14375 333.36 
L 719.74375 333.36 
" style="fill:none;stroke:#b0b0b0;stroke-dasharray:2.96,1.28;stroke-dashoffset:0;stroke-width:0.8;"/>
     </g>
     <g id="text_9">
      <!-- 0.00 -->
      <g transform="translate(20.878125 337.159219)scale(0.1 -0.1)">
       <defs>
        <path d="M 684 794 
L 1344 794 
L 1344 0 
L 684 0 
L 684 794 
z
" id="DejaVuSans-2e" transform="scale(0.015625)"/>
       </defs>
       <use xlink:href="#DejaVuSans-30"/>
       <use x="63.623047" xlink:href="#DejaVuSans-2e"/>
       <use x="95.410156" xlink:href="#DejaVuSans-30"/>
       <use x="159.033203" xlink:href="#DejaVuSans-30"/>
      </g>
     </g>
    </g>
    <g id="ytick_2">
     <g id="line2d_9">
      <path clip-path="url(#p4c2dff74e9)" d="M 50.14375 264.662503 
L 719.74375 264.662503 
" style="fill:none;stroke:#b0b0b0;stroke-dasharray:2.96,1.28;stroke-dashoffset:0;stroke-width:0.8;"/>
     </g>
     <g id="text_10">
      <!-- 0.05 -->
      <g transform="translate(20.878125 268.461721)scale(0.1 -0.1)">
       <use xlink:href="#DejaVuSans-30"/>
       <use x="63.623047" xlink:href="#DejaVuSans-2e"/>
       <use x="95.410156" xlink:href="#DejaVuSans-30"/>
       <use x="159.033203" xlink:href="#DejaVuSans-35"/>
      </g>
     </g>
    </g>
    <g id="ytick_3">
     <g id="line2d_10">
      <path clip-path="url(#p4c2dff74e9)" d="M 50.14375 195.965005 
L 719.74375 195.965005 
" style="fill:none;stroke:#b0b0b0;stroke-dasharray:2.96,1.28;stroke-dashoffset:0;stroke-width:0.8;"/>
     </g>
     <g id="text_11">
      <!-- 0.10 -->
      <g transform="translate(20.878125 199.764224)scale(0.1 -0.1)">
       <use xlink:href="#DejaVuSans-30"/>
       <use x="63.623047" xlink:href="#DejaVuSans-2e"/>
       <use x="95.410156" xlink:href="#DejaVuSans-31"/>
       <use x="159.033203" xlink:href="#DejaVuSans-30"/>
      </g>
     </g>
    </g>
    <g id="ytick_4">
     <g id="line2d_11">
      <path clip-path="url(#p4c2dff74e9)" d="M 50.14375 127.267508 
L 719.74375 127.267508 
" style="fill:none;stroke:#b0b0b0;stroke-dasharray:2.96,1.28;stroke-dashoffset:0;stroke-width:0.8;"/>
     </g>
     <g id="text_12">
      <!-- 0.15 -->
      <g transform="translate(20.878125 131.066726)scale(0.1 -0.1)">
       <use xlink:href="#DejaVuSans-30"/>
       <use x="63.623047" xlink:href="#DejaVuSans-2e"/>
       <use x="95.410156" xlink:href="#DejaVuSans-31"/>
       <use x="159.033203" xlink:href="#DejaVuSans-35"/>
      </g>
     </g>
    </g>
    <g id="ytick_5">
     <g id="line2d_12">
      <path clip-path="url(#p4c2dff74e9)" d="M 50.14375 58.57001 
L 719.74375 58.57001 
" style="fill:none;stroke:#b0b0b0;stroke-dasharray:2.96,1.28;stroke-dashoffset:0;stroke-width:0.8;"/>
     </g>
     <g id="text_13">
      <!-- 0.20 -->
      <g transform="translate(20.878125 62.369229)scale(0.1 -0.1)">
       <use xlink:href="#DejaVuSans-30"/>
       <use x="63.623047" xlink:href="#DejaVuSans-2e"/>
       <use x="95.410156" xlink:href="#DejaVuSans-32"/>
       <use x="159.033203" xlink:href="#DejaVuSans-30"/>
      </g>
     </g>
    </g>
    <g id="text_14">
     <!-- Density -->
     <g transform="translate(14.798438 189.288594)rotate(-90)scale(0.1 -0.1)">
      <defs>
       <path d="M 1259 4147 
L 1259 519 
L 2022 519 
Q 2988 519 3436 956 
Q 3884 1394 3884 2338 
Q 3884 3275 3436 3711 
Q 2988 4147 2022 4147 
L 1259 4147 
z
M 628 4666 
L 1925 4666 
Q 3281 4666 3915 4102 
Q 4550 3538 4550 2338 
Q 4550 1131 3912 565 
Q 3275 0 1925 0 
L 628 0 
L 628 4666 
z
" id="DejaVuSans-44" transform="scale(0.015625)"/>
       <path d="M 2059 -325 
Q 1816 -950 1584 -1140 
Q 1353 -1331 966 -1331 
L 506 -1331 
L 506 -850 
L 844 -850 
Q 1081 -850 1212 -737 
Q 1344 -625 1503 -206 
L 1606 56 
L 191 3500 
L 800 3500 
L 1894 763 
L 2988 3500 
L 3597 3500 
L 2059 -325 
z
" id="DejaVuSans-79" transform="scale(0.015625)"/>
      </defs>
      <use xlink:href="#DejaVuSans-44"/>
      <use x="77.001953" xlink:href="#DejaVuSans-65"/>
      <use x="138.525391" xlink:href="#DejaVuSans-6e"/>
      <use x="201.904297" xlink:href="#DejaVuSans-73"/>
      <use x="254.003906" xlink:href="#DejaVuSans-69"/>
      <use x="281.787109" xlink:href="#DejaVuSans-74"/>
      <use x="320.996094" xlink:href="#DejaVuSans-79"/>
     </g>
    </g>
   </g>
   <g id="line2d_13">
    <path clip-path="url(#p4c2dff74e9)" d="M -1 328.516654 
L 4.513982 327.498068 
L 12.400014 325.774906 
L 20.286046 323.742873 
L 28.172078 321.403496 
L 36.05811 318.772602 
L 43.944142 315.880254 
L 51.830174 312.769333 
L 63.659221 307.811248 
L 91.260333 295.95665 
L 99.146365 292.763102 
L 107.032397 289.746441 
L 114.918429 286.942386 
L 122.804461 284.37636 
L 130.690493 282.062704 
L 138.576524 280.004197 
L 146.462556 278.192035 
L 154.348588 276.606524 
L 162.23462 275.218672 
L 174.063668 273.428375 
L 189.835732 271.383187 
L 221.379859 267.657179 
L 237.151923 265.951196 
L 248.980971 264.903866 
L 256.867003 264.389877 
L 264.753035 264.068775 
L 272.639067 263.973042 
L 280.525099 264.12489 
L 288.41113 264.532851 
L 296.297162 265.189352 
L 304.183194 266.06955 
L 316.012242 267.71348 
L 343.613354 271.894949 
L 351.499386 272.826276 
L 359.385417 273.500477 
L 367.271449 273.856556 
L 375.157481 273.85099 
L 383.043513 273.462901 
L 390.929545 272.69883 
L 398.815577 271.596635 
L 406.701609 270.227802 
L 430.359704 265.713688 
L 438.245736 264.58678 
L 442.188752 264.187795 
L 446.131768 263.92438 
L 450.074784 263.813864 
L 454.0178 263.871277 
L 457.960816 264.108887 
L 461.903832 264.535812 
L 465.846848 265.157711 
L 469.789864 265.97658 
L 473.73288 266.990657 
L 477.675896 268.194453 
L 481.618912 269.578898 
L 485.561928 271.131611 
L 489.504944 272.837278 
L 497.390976 276.634461 
L 505.277007 280.808913 
L 532.878119 296.01759 
L 540.764151 300.006332 
L 548.650183 303.708604 
L 556.536215 307.11262 
L 564.422247 310.231215 
L 572.308279 313.090868 
L 580.19431 315.721329 
L 588.080342 318.147691 
L 595.966374 320.385895 
L 603.852406 322.441759 
L 611.738438 324.312906 
L 619.62447 325.992444 
L 627.510502 327.47318 
L 635.396534 328.751304 
L 643.282566 329.828832 
L 651.168597 330.714555 
L 659.054629 331.423594 
L 670.883677 332.200439 
L 682.712725 332.702803 
L 698.484789 333.07753 
L 710.313837 333.219684 
L 710.313837 333.219684 
" style="fill:none;stroke:#d62728;stroke-linecap:square;stroke-width:1.5;"/>
   </g>
   <g id="line2d_14">
    <path clip-path="url(#p4c2dff74e9)" d="M -1 307.816586 
L 1.254374 305.36163 
L 5.002651 300.826071 
L 8.750927 295.834912 
L 12.499204 290.396413 
L 16.247481 284.530052 
L 19.995757 278.267376 
L 23.744034 271.652484 
L 31.240587 257.60502 
L 46.233694 228.525912 
L 49.98197 221.619723 
L 53.730247 215.068146 
L 57.478524 208.97277 
L 61.2268 203.428463 
L 64.975077 198.52038 
L 68.723353 194.321267 
L 72.47163 190.889194 
L 76.219907 188.265815 
L 79.968183 186.475245 
L 83.71646 185.523608 
L 87.464737 185.39925 
L 91.213013 186.073618 
L 94.96129 187.502723 
L 98.709567 189.629131 
L 102.457843 192.384332 
L 106.20612 195.691406 
L 109.954397 199.467806 
L 113.702673 203.628157 
L 117.45095 208.086929 
L 124.947503 217.571191 
L 136.192333 232.131558 
L 143.688886 241.400622 
L 147.437163 245.785801 
L 151.18544 249.971875 
L 154.933716 253.943457 
L 158.681993 257.691509 
L 162.430269 261.212365 
L 166.178546 264.506732 
L 169.926823 267.578736 
L 173.675099 270.43504 
L 177.423376 273.084068 
L 181.171653 275.535356 
L 184.919929 277.799027 
L 188.668206 279.885399 
L 192.416483 281.804708 
L 196.164759 283.566938 
L 199.913036 285.181726 
L 203.661313 286.658348 
L 207.409589 288.005739 
L 214.906142 290.3472 
L 222.402696 292.273009 
L 229.899249 293.848312 
L 237.395802 295.137377 
L 244.892356 296.203204 
L 256.137185 297.513891 
L 274.878569 299.352562 
L 297.368228 301.610693 
L 342.347548 306.394784 
L 353.592378 307.249315 
L 361.088931 307.646382 
L 368.585485 307.875987 
L 376.082038 307.917894 
L 383.578591 307.758926 
L 391.075144 307.39587 
L 398.571698 306.838567 
L 409.816528 305.699548 
L 436.054464 302.656908 
L 443.551017 302.063762 
L 451.047571 301.759258 
L 458.544124 301.815642 
L 466.040677 302.27819 
L 473.537231 303.157429 
L 481.033784 304.425801 
L 488.530337 306.019923 
L 496.02689 307.848549 
L 522.264827 314.593196 
L 529.76138 316.277149 
L 537.257933 317.78359 
L 548.502763 319.7434 
L 563.49587 322.003204 
L 612.223466 328.954999 
L 623.468296 330.277236 
L 634.713126 331.335501 
L 645.957956 332.11533 
L 657.202786 332.644677 
L 672.195892 333.052729 
L 690.937276 333.270109 
L 690.937276 333.270109 
" style="fill:none;stroke:#ff7f0e;stroke-linecap:square;stroke-width:1.5;"/>
   </g>
   <g id="line2d_15">
    <path clip-path="url(#p4c2dff74e9)" d="M -1 327.949874 
L -0.029097 327.428428 
L 3.232573 325.069189 
L 6.494243 321.945748 
L 9.755913 317.881431 
L 13.017584 312.684406 
L 16.279254 306.155473 
L 19.540924 298.099043 
L 22.802594 288.33723 
L 26.064264 276.726564 
L 29.325935 263.176363 
L 32.587605 247.667408 
L 35.849275 230.269112 
L 39.110945 211.153204 
L 42.372616 190.601869 
L 48.895956 146.870082 
L 55.419297 103.351227 
L 58.680967 83.285793 
L 61.942637 65.233721 
L 65.204307 49.804343 
L 68.465977 37.5175 
L 71.727648 28.770206 
L 74.989318 23.811636 
L 78.250988 22.728782 
L 81.512658 25.444033 
L 84.774329 31.724704 
L 88.035999 41.203299 
L 91.297669 53.406278 
L 94.559339 67.788336 
L 97.82101 83.768883 
L 104.34435 118.23515 
L 110.86769 152.685599 
L 114.129361 168.920105 
L 117.391031 184.14045 
L 120.652701 198.188225 
L 123.914371 210.981434 
L 127.176042 222.50281 
L 130.437712 232.78642 
L 133.699382 241.903978 
L 136.961052 249.951953 
L 140.222723 257.04027 
L 143.484393 263.283036 
L 146.746063 268.791451 
L 150.007733 273.668808 
L 153.269403 278.007388 
L 156.531074 281.88691 
L 159.792744 285.374205 
L 163.054414 288.523791 
L 166.316084 291.379048 
L 169.577755 293.973763 
L 172.839425 296.33384 
L 176.101095 298.479039 
L 179.362765 300.424633 
L 182.624435 302.182904 
L 185.886106 303.764428 
L 189.147776 305.179108 
L 192.409446 306.43695 
L 195.671116 307.548559 
L 198.932787 308.525393 
L 205.456127 310.124724 
L 211.979468 311.339782 
L 218.502808 312.274312 
L 228.287819 313.338896 
L 238.072829 314.165121 
L 251.11951 315.033938 
L 273.951202 316.223089 
L 293.521223 317.374883 
L 319.614585 318.931521 
L 342.446277 320.244422 
L 375.062979 322.304617 
L 384.84799 322.574075 
L 394.633 322.590077 
L 404.418011 322.385229 
L 414.203022 321.978277 
L 423.988032 321.340439 
L 433.773043 320.446148 
L 453.343065 318.428629 
L 459.866405 318.053605 
L 466.389745 318.028945 
L 469.651416 318.175504 
L 472.913086 318.435515 
L 479.436426 319.292104 
L 485.959767 320.545857 
L 492.483107 322.079496 
L 505.529788 325.332179 
L 512.053129 326.720409 
L 518.576469 327.781711 
L 525.09981 328.458137 
L 531.62315 328.756644 
L 538.14649 328.7461 
L 551.193171 328.292454 
L 557.716512 328.13013 
L 564.239852 328.161214 
L 570.763193 328.435154 
L 577.286533 328.940405 
L 587.071544 329.987803 
L 600.118225 331.452338 
L 609.903236 332.298921 
L 619.688246 332.845589 
L 629.473257 333.142703 
L 642.519938 333.304424 
L 642.519938 333.304424 
" style="fill:none;stroke:#9467bd;stroke-linecap:square;stroke-width:1.5;"/>
   </g>
   <g id="line2d_16">
    <path clip-path="url(#p4c2dff74e9)" d="M -1 332.785104 
L 4.500616 332.409445 
L 11.13518 331.672957 
L 14.452461 331.153028 
L 17.769743 330.507017 
L 21.087025 329.714834 
L 24.404307 328.755916 
L 27.721589 327.609881 
L 31.038871 326.257254 
L 34.356152 324.680226 
L 37.673434 322.863404 
L 40.990716 320.794483 
L 44.307998 318.464809 
L 47.62528 315.869786 
L 50.942562 313.009093 
L 54.259843 309.886724 
L 57.577125 306.510854 
L 60.894407 302.893565 
L 64.211689 299.05049 
L 67.528971 295.000425 
L 74.163535 286.368232 
L 80.798098 277.199053 
L 100.701789 249.056063 
L 104.019071 244.680791 
L 107.336353 240.511685 
L 110.653635 236.593348 
L 113.970917 232.968662 
L 117.288199 229.677376 
L 120.60548 226.754669 
L 123.922762 224.229777 
L 127.240044 222.124785 
L 130.557326 220.453686 
L 133.874608 219.221761 
L 137.19189 218.425349 
L 140.509171 218.052001 
L 143.826453 218.08102 
L 147.143735 218.484351 
L 150.461017 219.227736 
L 153.778299 220.272083 
L 157.095581 221.574943 
L 160.412862 223.092006 
L 163.730144 224.778543 
L 170.364708 228.48675 
L 183.633835 236.190194 
L 190.268399 239.726915 
L 196.902963 242.865971 
L 203.537526 245.551319 
L 210.17209 247.78513 
L 216.806654 249.616973 
L 223.441217 251.131044 
L 233.393063 253.035552 
L 249.979472 256.062579 
L 259.931318 258.148076 
L 269.883163 260.508908 
L 279.835009 263.106666 
L 289.786854 265.908415 
L 299.7387 268.928216 
L 309.690545 272.19942 
L 319.642391 275.703994 
L 339.546082 282.841201 
L 346.180646 285.018413 
L 352.815209 286.990134 
L 359.449773 288.712163 
L 366.084337 290.154289 
L 372.7189 291.297328 
L 379.353464 292.130395 
L 385.988028 292.650435 
L 392.622591 292.864448 
L 399.257155 292.793357 
L 405.891719 292.475939 
L 415.843564 291.674073 
L 429.112692 290.483434 
L 435.747255 290.110258 
L 442.381819 290.07788 
L 445.699101 290.236686 
L 449.016383 290.536021 
L 452.333665 290.99171 
L 455.650946 291.616917 
L 458.968228 292.421267 
L 462.28551 293.410008 
L 465.602792 294.583272 
L 468.920074 295.935516 
L 472.237356 297.455197 
L 475.554638 299.124746 
L 482.189201 302.81519 
L 498.77561 312.549999 
L 502.092892 314.300109 
L 505.410174 315.911519 
L 508.727456 317.362091 
L 512.044738 318.636076 
L 515.36202 319.724618 
L 518.679301 320.625928 
L 521.996583 321.345123 
L 525.313865 321.893764 
L 528.631147 322.289112 
L 535.265711 322.711433 
L 541.900274 322.823049 
L 551.85212 322.896188 
L 558.486684 323.153274 
L 565.121247 323.707056 
L 571.755811 324.578049 
L 578.390375 325.712769 
L 601.611348 330.144764 
L 608.245911 331.122434 
L 614.880475 331.882579 
L 621.515039 332.434927 
L 628.149602 332.810947 
L 638.101448 333.133064 
L 648.053293 333.276973 
L 648.053293 333.276973 
" style="fill:none;stroke:#2ca02c;stroke-linecap:square;stroke-width:1.5;"/>
   </g>
   <g id="legend_1">
    <g id="patch_3">
     <path d="M 608.264063 73.9125 
L 712.74375 73.9125 
Q 714.74375 73.9125 714.74375 71.9125 
L 714.74375 14.2 
Q 714.74375 12.2 712.74375 12.2 
L 608.264063 12.2 
Q 606.264063 12.2 606.264063 14.2 
L 606.264063 71.9125 
Q 606.264063 73.9125 608.264063 73.9125 
z
" style="fill:#ffffff;opacity:0.8;stroke:#cccccc;stroke-linejoin:miter;"/>
    </g>
    <g id="line2d_17">
     <path d="M 610.264063 20.298437 
L 630.264063 20.298437 
" style="fill:none;stroke:#d62728;stroke-linecap:square;stroke-width:1.5;"/>
    </g>
    <g id="line2d_18"/>
    <g id="text_15">
     <!-- Worst sellers -->
     <g transform="translate(638.264063 23.798437)scale(0.1 -0.1)">
      <defs>
       <path d="M 213 4666 
L 850 4666 
L 1831 722 
L 2809 4666 
L 3519 4666 
L 4500 722 
L 5478 4666 
L 6119 4666 
L 4947 0 
L 4153 0 
L 3169 4050 
L 2175 0 
L 1381 0 
L 213 4666 
z
" id="DejaVuSans-57" transform="scale(0.015625)"/>
      </defs>
      <use xlink:href="#DejaVuSans-57"/>
      <use x="93.001953" xlink:href="#DejaVuSans-6f"/>
      <use x="154.183594" xlink:href="#DejaVuSans-72"/>
      <use x="195.296875" xlink:href="#DejaVuSans-73"/>
      <use x="247.396484" xlink:href="#DejaVuSans-74"/>
      <use x="286.605469" xlink:href="#DejaVuSans-20"/>
      <use x="318.392578" xlink:href="#DejaVuSans-73"/>
      <use x="370.492188" xlink:href="#DejaVuSans-65"/>
      <use x="432.015625" xlink:href="#DejaVuSans-6c"/>
      <use x="459.798828" xlink:href="#DejaVuSans-6c"/>
      <use x="487.582031" xlink:href="#DejaVuSans-65"/>
      <use x="549.105469" xlink:href="#DejaVuSans-72"/>
      <use x="590.21875" xlink:href="#DejaVuSans-73"/>
     </g>
    </g>
    <g id="line2d_19">
     <path d="M 610.264063 34.976562 
L 630.264063 34.976562 
" style="fill:none;stroke:#ff7f0e;stroke-linecap:square;stroke-width:1.5;"/>
    </g>
    <g id="line2d_20"/>
    <g id="text_16">
     <!-- Bad sellers -->
     <g transform="translate(638.264063 38.476562)scale(0.1 -0.1)">
      <defs>
       <path d="M 1259 2228 
L 1259 519 
L 2272 519 
Q 2781 519 3026 730 
Q 3272 941 3272 1375 
Q 3272 1813 3026 2020 
Q 2781 2228 2272 2228 
L 1259 2228 
z
M 1259 4147 
L 1259 2741 
L 2194 2741 
Q 2656 2741 2882 2914 
Q 3109 3088 3109 3444 
Q 3109 3797 2882 3972 
Q 2656 4147 2194 4147 
L 1259 4147 
z
M 628 4666 
L 2241 4666 
Q 2963 4666 3353 4366 
Q 3744 4066 3744 3513 
Q 3744 3084 3544 2831 
Q 3344 2578 2956 2516 
Q 3422 2416 3680 2098 
Q 3938 1781 3938 1306 
Q 3938 681 3513 340 
Q 3088 0 2303 0 
L 628 0 
L 628 4666 
z
" id="DejaVuSans-42" transform="scale(0.015625)"/>
      </defs>
      <use xlink:href="#DejaVuSans-42"/>
      <use x="68.603516" xlink:href="#DejaVuSans-61"/>
      <use x="129.882812" xlink:href="#DejaVuSans-64"/>
      <use x="193.359375" xlink:href="#DejaVuSans-20"/>
      <use x="225.146484" xlink:href="#DejaVuSans-73"/>
      <use x="277.246094" xlink:href="#DejaVuSans-65"/>
      <use x="338.769531" xlink:href="#DejaVuSans-6c"/>
      <use x="366.552734" xlink:href="#DejaVuSans-6c"/>
      <use x="394.335938" xlink:href="#DejaVuSans-65"/>
      <use x="455.859375" xlink:href="#DejaVuSans-72"/>
      <use x="496.972656" xlink:href="#DejaVuSans-73"/>
     </g>
    </g>
    <g id="line2d_21">
     <path d="M 610.264063 49.654687 
L 630.264063 49.654687 
" style="fill:none;stroke:#9467bd;stroke-linecap:square;stroke-width:1.5;"/>
    </g>
    <g id="line2d_22"/>
    <g id="text_17">
     <!-- Neutral sellers -->
     <g transform="translate(638.264063 53.154687)scale(0.1 -0.1)">
      <defs>
       <path d="M 628 4666 
L 1478 4666 
L 3547 763 
L 3547 4666 
L 4159 4666 
L 4159 0 
L 3309 0 
L 1241 3903 
L 1241 0 
L 628 0 
L 628 4666 
z
" id="DejaVuSans-4e" transform="scale(0.015625)"/>
       <path d="M 544 1381 
L 544 3500 
L 1119 3500 
L 1119 1403 
Q 1119 906 1312 657 
Q 1506 409 1894 409 
Q 2359 409 2629 706 
Q 2900 1003 2900 1516 
L 2900 3500 
L 3475 3500 
L 3475 0 
L 2900 0 
L 2900 538 
Q 2691 219 2414 64 
Q 2138 -91 1772 -91 
Q 1169 -91 856 284 
Q 544 659 544 1381 
z
M 1991 3584 
L 1991 3584 
z
" id="DejaVuSans-75" transform="scale(0.015625)"/>
      </defs>
      <use xlink:href="#DejaVuSans-4e"/>
      <use x="74.804688" xlink:href="#DejaVuSans-65"/>
      <use x="136.328125" xlink:href="#DejaVuSans-75"/>
      <use x="199.707031" xlink:href="#DejaVuSans-74"/>
      <use x="238.916016" xlink:href="#DejaVuSans-72"/>
      <use x="280.029297" xlink:href="#DejaVuSans-61"/>
      <use x="341.308594" xlink:href="#DejaVuSans-6c"/>
      <use x="369.091797" xlink:href="#DejaVuSans-20"/>
      <use x="400.878906" xlink:href="#DejaVuSans-73"/>
      <use x="452.978516" xlink:href="#DejaVuSans-65"/>
      <use x="514.501953" xlink:href="#DejaVuSans-6c"/>
      <use x="542.285156" xlink:href="#DejaVuSans-6c"/>
      <use x="570.068359" xlink:href="#DejaVuSans-65"/>
      <use x="631.591797" xlink:href="#DejaVuSans-72"/>
      <use x="672.705078" xlink:href="#DejaVuSans-73"/>
     </g>
    </g>
    <g id="line2d_23">
     <path d="M 610.264063 64.332812 
L 630.264063 64.332812 
" style="fill:none;stroke:#2ca02c;stroke-linecap:square;stroke-width:1.5;"/>
    </g>
    <g id="line2d_24"/>
    <g id="text_18">
     <!-- Good sellers -->
     <g transform="translate(638.264063 67.832812)scale(0.1 -0.1)">
      <defs>
       <path d="M 3809 666 
L 3809 1919 
L 2778 1919 
L 2778 2438 
L 4434 2438 
L 4434 434 
Q 4069 175 3628 42 
Q 3188 -91 2688 -91 
Q 1594 -91 976 548 
Q 359 1188 359 2328 
Q 359 3472 976 4111 
Q 1594 4750 2688 4750 
Q 3144 4750 3555 4637 
Q 3966 4525 4313 4306 
L 4313 3634 
Q 3963 3931 3569 4081 
Q 3175 4231 2741 4231 
Q 1884 4231 1454 3753 
Q 1025 3275 1025 2328 
Q 1025 1384 1454 906 
Q 1884 428 2741 428 
Q 3075 428 3337 486 
Q 3600 544 3809 666 
z
" id="DejaVuSans-47" transform="scale(0.015625)"/>
      </defs>
      <use xlink:href="#DejaVuSans-47"/>
      <use x="77.490234" xlink:href="#DejaVuSans-6f"/>
      <use x="138.671875" xlink:href="#DejaVuSans-6f"/>
      <use x="199.853516" xlink:href="#DejaVuSans-64"/>
      <use x="263.330078" xlink:href="#DejaVuSans-20"/>
      <use x="295.117188" xlink:href="#DejaVuSans-73"/>
      <use x="347.216797" xlink:href="#DejaVuSans-65"/>
      <use x="408.740234" xlink:href="#DejaVuSans-6c"/>
      <use x="436.523438" xlink:href="#DejaVuSans-6c"/>
      <use x="464.306641" xlink:href="#DejaVuSans-65"/>
      <use x="525.830078" xlink:href="#DejaVuSans-72"/>
      <use x="566.943359" xlink:href="#DejaVuSans-73"/>
     </g>
    </g>
   </g>
  </g>
 </g>
 <defs>
  <clipPath id="p4c2dff74e9">
   <rect height="326.16" width="669.6" x="50.14375" y="7.2"/>
  </clipPath>
 </defs>
</svg>
